# xmcd
#
# Track frame offsets: 
#        151
#        12396
#        33080
#        47073
#        68378
#        81683
#        96589
#        112220
#        129431
#        147172
#        172499
#        198962
#
# Disc length: 2931 seconds
#
# Revision: 0
# Processed by: cddbd v1.5.2PL0 Copyright (c) Steve Scherf et al.
# Submitted via: ExactAudioCopy v0.99pb3
#
DISCID=af0b710c
DTITLE=Paul Simon - Greatest Hits
DYEAR=1900
DGENRE=Pop-Folk
TTITLE0=Me and Julio Down by the Schoolyard
TTITLE1=Something So Right
TTITLE2=50 Ways to Leave Your Lover
TTITLE3=Slip Slidin' Away
TTITLE4=Mother and Child Reunion
TTITLE5=Loves Me Like a Rock
TTITLE6=Kodachrome
TTITLE7=Still Crazy After all These Years
TTITLE8=Late in the Evening
TTITLE9=Hearts and Bones
TTITLE10=Diamonds on the Soles of her Shoes
TTITLE11=You Can Call me Al
EXTD=
EXTT0=
EXTT1=
EXTT2=
EXTT3=
EXTT4=
EXTT5=
EXTT6=
EXTT7=
EXTT8=
EXTT9=
EXTT10=
EXTT11=
PLAYORDER=
